<svg width="44" height="38" viewBox="0 0 44 38" fill="none" xmlns="http://www.w3.org/2000/svg">
<path fill-rule="evenodd" clip-rule="evenodd" d="M22 6.94515C18.2013 2.74285 11.8535 1.44415 7.09393 5.2922C2.33432 9.14025 1.66423 15.5739 5.40198 20.1251C8.50967 23.9089 17.9146 31.8896 20.997 34.4727C21.3418 34.7617 21.5142 34.9062 21.7154 34.9629C21.8909 35.0124 22.083 35.0124 22.2586 34.9629C22.4598 34.9062 22.6321 34.7617 22.977 34.4727C26.0595 31.8896 35.4643 23.9089 38.572 20.1251C42.3098 15.5739 41.7214 9.09977 36.88 5.2922C32.0386 1.48463 25.7988 2.74285 22 6.94515Z" stroke="white" stroke-width="6" stroke-linecap="round" stroke-linejoin="round"/>
<path d="M22.5 8L19 15L23.5 20L19.5 24L22.5 32" stroke="white" stroke-width="3"/>
</svg>
