<svg width="44" height="39" viewBox="0 0 44 39" fill="none" xmlns="http://www.w3.org/2000/svg">
<path fill-rule="evenodd" clip-rule="evenodd" d="M22 7.69564C18.2013 3.49333 11.8535 2.19464 7.09393 6.04269C2.33432 9.89074 1.66423 16.3244 5.40198 20.8756C8.50967 24.6594 17.9146 32.6401 20.997 35.2232C21.3418 35.5122 21.5142 35.6567 21.7154 35.7134C21.8909 35.7629 22.083 35.7629 22.2586 35.7134C22.4598 35.6567 22.6321 35.5122 22.977 35.2232C26.0595 32.6401 35.4643 24.6594 38.572 20.8756C42.3098 16.3244 41.7214 9.85026 36.88 6.04269C32.0386 2.23512 25.7988 3.49333 22 7.69564Z" stroke="white" stroke-width="6" stroke-linecap="round" stroke-linejoin="round"/>
<rect x="4" y="5" width="36" height="26" rx="13" fill="white"/>
<rect x="17" y="27" width="7" height="6" fill="white"/>
</svg>
